<?xml version="1.0" encoding="UTF-8" standalone="no"?><!DOCTYPE svg PUBLIC "-//W3C//DTD SVG 1.1//EN" "http://www.w3.org/Graphics/SVG/1.1/DTD/svg11.dtd"><svg width="100%" height="100%" viewBox="0 0 1617 465" version="1.1" xmlns="http://www.w3.org/2000/svg" xmlns:xlink="http://www.w3.org/1999/xlink" xml:space="preserve" xmlns:serif="http://www.serif.com/" style="fill-rule:evenodd;clip-rule:evenodd;"><g><g><path d="M268.627,17.32c10.371,-2.975 21.541,-0.188 29.304,7.308l137.867,133.137c7.762,7.492 10.937,18.563 8.325,29.034l-46.363,185.962c-2.612,10.471 -10.612,18.75 -20.983,21.725l-184.234,52.829c-10.37,2.975 -21.541,0.188 -29.304,-7.308l-137.866,-133.137c-7.763,-7.492 -10.938,-18.563 -8.325,-29.034l46.362,-185.962c2.613,-10.471 10.613,-18.75 20.983,-21.725l184.234,-52.829Z" style="fill:none;fill-rule:nonzero;stroke:#c9c9c9;stroke-width:7.83px;"/><path d="M256.739,47.007c8.796,-2.858 18.45,-0.804 25.325,5.383l122.084,109.925c6.87,6.188 9.92,15.571 8,24.621l-34.159,160.684c-1.921,9.05 -8.525,16.383 -17.321,19.241l-156.237,50.767c-8.796,2.854 -18.45,0.804 -25.325,-5.388l-122.079,-109.92c-6.875,-6.188 -9.925,-15.575 -8,-24.621l34.154,-160.688c1.921,-9.046 8.525,-16.383 17.325,-19.241l156.233,-50.763Z" style="fill:none;fill-rule:nonzero;stroke:#c9c9c9;stroke-width:7.83px;"/><path d="M246.977,77.228c7.241,-2.633 15.341,-1.208 21.246,3.75l104.87,87.992c5.905,4.954 8.717,12.683 7.38,20.275l-23.771,134.816c-1.342,7.592 -6.625,13.892 -13.871,16.529l-128.642,46.821c-7.241,2.634 -15.341,1.209 -21.246,-3.746l-104.87,-87.995c-5.905,-4.955 -8.717,-12.684 -7.375,-20.275l23.77,-134.817c1.338,-7.592 6.625,-13.892 13.867,-16.529l128.642,-46.821Z" style="fill:none;fill-rule:nonzero;stroke:#c9c9c9;stroke-width:7.83px;"/><path d="M239.36,107.861c5.721,-2.308 12.233,-1.391 17.092,2.404l86.304,67.425c4.858,3.796 7.321,9.896 6.462,16.005l-15.241,108.45c-0.859,6.108 -4.909,11.291 -10.625,13.6l-101.542,41.029c-5.717,2.308 -12.233,1.391 -17.092,-2.404l-86.304,-67.425c-4.858,-3.796 -7.321,-9.896 -6.462,-16.005l15.241,-108.45c0.859,-6.108 4.909,-11.291 10.625,-13.604l101.542,-41.025Z" style="fill:none;fill-rule:nonzero;stroke:#c9c9c9;stroke-width:7.83px;"/><path d="M233.906,138.803c4.225,-1.879 9.133,-1.363 12.875,1.354l66.45,48.279c3.742,2.721 5.75,7.229 5.267,11.829l-8.588,81.688c-0.483,4.596 -3.383,8.592 -7.608,10.471l-75.038,33.408c-4.225,1.883 -9.133,1.367 -12.875,-1.354l-66.45,-48.279c-3.741,-2.717 -5.75,-7.225 -5.266,-11.825l8.587,-81.688c0.483,-4.6 3.383,-8.591 7.608,-10.471l75.038,-33.412Z" style="fill:none;fill-rule:nonzero;stroke:#c9c9c9;stroke-width:7.83px;"/><path d="M230.623,169.936c2.77,-1.35 6.05,-1.121 8.608,0.6l45.396,30.625c2.558,1.721 4,4.679 3.783,7.754l-3.821,54.625c-0.212,3.075 -2.054,5.805 -4.825,7.155l-49.216,24.004c-2.771,1.354 -6.055,1.125 -8.609,-0.6l-45.396,-30.621c-2.558,-1.725 -4,-4.683 -3.783,-7.758l3.817,-54.625c0.216,-3.075 2.054,-5.805 4.829,-7.155l49.217,-24.004Z" style="fill:none;fill-rule:nonzero;stroke:#c9c9c9;stroke-width:7.83px;"/><path d="M229.514,201.149c1.363,-0.725 3.004,-0.667 4.313,0.15l23.221,14.508c1.308,0.817 2.079,2.271 2.025,3.808l-0.955,27.363c-0.058,1.542 -0.929,2.937 -2.287,3.662l-24.175,12.855c-1.363,0.72 -3.004,0.666 -4.313,-0.155l-23.22,-14.508c-1.305,-0.817 -2.08,-2.267 -2.025,-3.808l0.958,-27.363c0.05,-1.541 0.921,-2.937 2.283,-3.658l24.175,-12.854Z" style="fill:none;fill-rule:nonzero;stroke:#c9c9c9;stroke-width:7.83px;"/></g><g transform="matrix(225.696,0,0,225.696,1628.64,291.441)"></g><text x="513.168px" y="291.441px" style="font-family:'CenturyGothic', 'Century Gothic', sans-serif;font-size:225.696px;fill:#c9c9c9;">MonoApp</text></g></svg>