<svg width="100%" height="100%" viewBox="0 0 318 112" version="1.1" xmlns="http://www.w3.org/2000/svg" xmlns:xlink="http://www.w3.org/1999/xlink" xml:space="preserve" xmlns:serif="http://www.serif.com/" style="fill-rule:evenodd;clip-rule:evenodd;"><g><g><path d="M64.477,4.163c2.489,-0.714 5.17,-0.045 7.033,1.754l33.088,31.953c1.863,1.798 2.625,4.455 1.998,6.968l-11.127,44.631c-0.627,2.513 -2.547,4.5 -5.036,5.214l-44.216,12.679c-2.489,0.714 -5.17,0.045 -7.033,-1.754l-33.088,-31.953c-1.863,-1.798 -2.625,-4.455 -1.998,-6.968l11.127,-44.631c0.627,-2.513 2.547,-4.5 5.036,-5.214l44.216,-12.679Z" style="fill:none;fill-rule:nonzero;stroke:url(#_Linear1);stroke-width:1.88px;"/><path d="M61.624,11.288c2.111,-0.686 4.428,-0.193 6.078,1.292l29.3,26.382c1.649,1.485 2.381,3.737 1.92,5.909l-8.198,38.564c-0.461,2.172 -2.046,3.932 -4.157,4.618l-37.497,12.184c-2.111,0.685 -4.428,0.193 -6.078,-1.293l-29.299,-26.381c-1.65,-1.485 -2.382,-3.738 -1.92,-5.909l8.197,-38.565c0.461,-2.171 2.046,-3.932 4.158,-4.618l37.496,-12.183Z" style="fill:none;fill-rule:nonzero;stroke:url(#_Linear2);stroke-width:1.88px;"/><path d="M59.281,18.541c1.738,-0.632 3.682,-0.29 5.099,0.9l25.169,21.118c1.417,1.189 2.092,3.044 1.771,4.866l-5.705,32.356c-0.322,1.822 -1.59,3.334 -3.329,3.967l-30.874,11.237c-1.738,0.632 -3.682,0.29 -5.099,-0.899l-25.169,-21.119c-1.417,-1.189 -2.092,-3.044 -1.77,-4.866l5.705,-32.356c0.321,-1.822 1.59,-3.334 3.328,-3.967l30.874,-11.237Z" style="fill:none;fill-rule:nonzero;stroke:url(#_Linear3);stroke-width:1.88px;"/><path d="M57.453,25.893c1.373,-0.554 2.936,-0.334 4.102,0.577l20.713,16.182c1.166,0.911 1.757,2.375 1.551,3.841l-3.658,26.028c-0.206,1.466 -1.178,2.71 -2.55,3.264l-24.37,9.847c-1.372,0.554 -2.936,0.334 -4.102,-0.577l-20.713,-16.182c-1.166,-0.911 -1.757,-2.375 -1.551,-3.841l3.658,-26.028c0.206,-1.466 1.178,-2.71 2.55,-3.265l24.37,-9.846Z" style="fill:none;fill-rule:nonzero;stroke:url(#_Linear4);stroke-width:1.88px;"/><path d="M56.144,33.319c1.014,-0.451 2.192,-0.327 3.09,0.325l15.948,11.587c0.898,0.653 1.38,1.735 1.264,2.839l-2.061,19.605c-0.116,1.103 -0.812,2.062 -1.826,2.513l-18.009,8.018c-1.014,0.452 -2.192,0.328 -3.09,-0.325l-15.948,-11.587c-0.898,-0.652 -1.38,-1.734 -1.264,-2.838l2.061,-19.605c0.116,-1.104 0.812,-2.062 1.826,-2.513l18.009,-8.019Z" style="fill:none;fill-rule:nonzero;stroke:url(#_Linear5);stroke-width:1.88px;"/><path d="M55.356,40.791c0.665,-0.324 1.452,-0.269 2.066,0.144l10.895,7.35c0.614,0.413 0.96,1.123 0.908,1.861l-0.917,13.11c-0.051,0.738 -0.493,1.393 -1.158,1.717l-11.812,5.761c-0.665,0.325 -1.453,0.27 -2.066,-0.144l-10.895,-7.349c-0.614,-0.414 -0.96,-1.124 -0.908,-1.862l0.916,-13.11c0.052,-0.738 0.493,-1.393 1.159,-1.717l11.812,-5.761Z" style="fill:none;fill-rule:nonzero;stroke:url(#_Linear6);stroke-width:1.88px;"/><path d="M55.09,48.282c0.327,-0.174 0.721,-0.16 1.035,0.036l5.573,3.482c0.314,0.196 0.499,0.545 0.486,0.914l-0.229,6.567c-0.014,0.37 -0.223,0.705 -0.549,0.879l-5.802,3.085c-0.327,0.173 -0.721,0.16 -1.035,-0.037l-5.573,-3.482c-0.313,-0.196 -0.499,-0.544 -0.486,-0.914l0.23,-6.567c0.012,-0.37 0.221,-0.705 0.548,-0.878l5.802,-3.085Z" style="fill:none;fill-rule:nonzero;stroke:url(#_Linear7);stroke-width:1.88px;"/></g><g transform="matrix(54.1667,0,0,54.1667,320.526,73.3227)"></g><text x="123.167px" y="73.323px" style="font-family:'CenturyGothic', 'Century Gothic', sans-serif;font-size:54.167px;fill:#3d8eef;">Invento</text></g><defs><linearGradient id="_Linear1" x1="0" y1="0" x2="1" y2="0" gradientUnits="userSpaceOnUse" gradientTransform="matrix(86.9643,87.5302,-87.5302,86.9643,19.1843,18.1059)"><stop offset="0" style="stop-color:#3d8eef;stop-opacity:1"/><stop offset="1" style="stop-color:#2749bb;stop-opacity:1"/></linearGradient><linearGradient id="_Linear2" x1="0" y1="0" x2="1" y2="0" gradientUnits="userSpaceOnUse" gradientTransform="matrix(86.9643,87.5302,-87.5302,86.9643,19.1843,18.1059)"><stop offset="0" style="stop-color:#3d8eef;stop-opacity:1"/><stop offset="1" style="stop-color:#2749bb;stop-opacity:1"/></linearGradient><linearGradient id="_Linear3" x1="0" y1="0" x2="1" y2="0" gradientUnits="userSpaceOnUse" gradientTransform="matrix(86.9643,87.5302,-87.5302,86.9643,19.1843,18.1059)"><stop offset="0" style="stop-color:#3d8eef;stop-opacity:1"/><stop offset="1" style="stop-color:#2749bb;stop-opacity:1"/></linearGradient><linearGradient id="_Linear4" x1="0" y1="0" x2="1" y2="0" gradientUnits="userSpaceOnUse" gradientTransform="matrix(86.9643,87.5302,-87.5302,86.9643,19.1843,18.1059)"><stop offset="0" style="stop-color:#3d8eef;stop-opacity:1"/><stop offset="1" style="stop-color:#2749bb;stop-opacity:1"/></linearGradient><linearGradient id="_Linear5" x1="0" y1="0" x2="1" y2="0" gradientUnits="userSpaceOnUse" gradientTransform="matrix(86.9643,87.5302,-87.5302,86.9643,19.1843,18.1059)"><stop offset="0" style="stop-color:#3d8eef;stop-opacity:1"/><stop offset="1" style="stop-color:#2749bb;stop-opacity:1"/></linearGradient><linearGradient id="_Linear6" x1="0" y1="0" x2="1" y2="0" gradientUnits="userSpaceOnUse" gradientTransform="matrix(86.9643,87.5302,-87.5302,86.9643,19.1843,18.1059)"><stop offset="0" style="stop-color:#3d8eef;stop-opacity:1"/><stop offset="1" style="stop-color:#2749bb;stop-opacity:1"/></linearGradient><linearGradient id="_Linear7" x1="0" y1="0" x2="1" y2="0" gradientUnits="userSpaceOnUse" gradientTransform="matrix(86.9643,87.5302,-87.5302,86.9643,19.1843,18.1059)"><stop offset="0" style="stop-color:#3d8eef;stop-opacity:1"/><stop offset="1" style="stop-color:#2749bb;stop-opacity:1"/></linearGradient></defs></svg>