<?xml version="1.0" encoding="UTF-8" standalone="no"?><!DOCTYPE svg PUBLIC "-//W3C//DTD SVG 1.1//EN" "http://www.w3.org/Graphics/SVG/1.1/DTD/svg11.dtd"><svg width="100%" height="100%" viewBox="0 0 417 213" version="1.1" xmlns="http://www.w3.org/2000/svg" xmlns:xlink="http://www.w3.org/1999/xlink" xml:space="preserve" xmlns:serif="http://www.serif.com/" style="fill-rule:evenodd;clip-rule:evenodd;"><g><g><path d="M115.703,21.683c4.131,-1.184 8.581,-0.075 11.672,2.911l54.909,53.024c3.091,2.985 4.355,7.394 3.316,11.564l-18.467,74.064c-1.039,4.17 -4.225,7.469 -8.356,8.654l-73.375,21.039c-4.131,1.185 -8.581,0.075 -11.672,-2.911l-54.909,-53.024c-3.091,-2.985 -4.355,-7.393 -3.315,-11.563l18.466,-74.064c1.039,-4.17 4.225,-7.469 8.356,-8.654l73.375,-21.04Z" style="fill:none;fill-rule:nonzero;stroke:url(#_Linear1);stroke-width:3.13px;"/><path d="M110.97,33.507c3.503,-1.138 7.348,-0.321 10.085,2.144l48.622,43.779c2.738,2.465 3.952,6.203 3.186,9.807l-13.603,63.997c-0.765,3.603 -3.395,6.524 -6.899,7.663l-62.225,20.218c-3.504,1.138 -7.348,0.321 -10.086,-2.145l-48.622,-43.779c-2.737,-2.464 -3.952,-6.203 -3.186,-9.806l13.603,-63.997c0.766,-3.603 3.396,-6.525 6.9,-7.663l62.225,-20.218Z" style="fill:none;fill-rule:nonzero;stroke:url(#_Linear2);stroke-width:3.13px;"/><path d="M107.081,45.543c2.884,-1.049 6.11,-0.48 8.462,1.493l41.767,35.046c2.351,1.973 3.472,5.051 2.938,8.074l-9.467,53.694c-0.533,3.024 -2.639,5.533 -5.523,6.583l-51.235,18.648c-2.885,1.049 -6.11,0.481 -8.462,-1.493l-41.767,-35.046c-2.351,-1.973 -3.472,-5.051 -2.939,-8.074l9.468,-53.694c0.533,-3.024 2.639,-5.533 5.523,-6.583l51.235,-18.648Z" style="fill:none;fill-rule:nonzero;stroke:url(#_Linear3);stroke-width:3.13px;"/><path d="M104.048,57.744c2.277,-0.92 4.872,-0.555 6.807,0.957l34.372,26.854c1.935,1.512 2.916,3.941 2.575,6.373l-6.071,43.194c-0.341,2.432 -1.955,4.497 -4.232,5.417l-40.442,16.339c-2.277,0.92 -4.872,0.555 -6.807,-0.957l-34.372,-26.854c-1.935,-1.511 -2.916,-3.941 -2.575,-6.373l6.071,-43.194c0.341,-2.431 1.955,-4.496 4.232,-5.417l40.442,-16.339Z" style="fill:none;fill-rule:nonzero;stroke:url(#_Linear4);stroke-width:3.13px;"/><path d="M101.875,70.068c1.683,-0.75 3.637,-0.544 5.127,0.539l26.466,19.228c1.49,1.082 2.29,2.878 2.097,4.71l-3.42,32.534c-0.192,1.832 -1.347,3.422 -3.03,4.171l-29.885,13.306c-1.683,0.749 -3.638,0.544 -5.127,-0.539l-26.466,-19.229c-1.491,-1.082 -2.29,-2.878 -2.097,-4.709l3.419,-32.535c0.193,-1.832 1.348,-3.422 3.031,-4.171l29.885,-13.306Z" style="fill:none;fill-rule:nonzero;stroke:url(#_Linear5);stroke-width:3.13px;"/><path d="M100.567,82.466c1.103,-0.538 2.41,-0.447 3.428,0.24l18.081,12.196c1.018,0.686 1.592,1.864 1.507,3.088l-1.521,21.757c-0.086,1.224 -0.819,2.311 -1.922,2.849l-19.603,9.56c-1.103,0.539 -2.41,0.447 -3.428,-0.239l-18.081,-12.196c-1.018,-0.686 -1.592,-1.864 -1.506,-3.089l1.521,-21.756c0.086,-1.225 0.818,-2.311 1.922,-2.849l19.602,-9.561Z" style="fill:none;fill-rule:nonzero;stroke:url(#_Linear6);stroke-width:3.13px;"/><path d="M100.126,94.897c0.542,-0.288 1.197,-0.265 1.718,0.06l9.247,5.779c0.521,0.325 0.829,0.904 0.807,1.517l-0.381,10.898c-0.021,0.614 -0.368,1.169 -0.91,1.457l-9.628,5.12c-0.542,0.288 -1.197,0.265 -1.718,-0.06l-9.247,-5.779c-0.521,-0.325 -0.829,-0.904 -0.807,-1.517l0.38,-10.898c0.022,-0.614 0.369,-1.169 0.911,-1.458l9.628,-5.119Z" style="fill:none;fill-rule:nonzero;stroke:url(#_Linear7);stroke-width:3.13px;"/></g><g transform="matrix(50,0,0,50,381.589,124.249)"></g><text x="199.411px" y="124.249px" style="font-family:'CenturyGothic', 'Century Gothic', sans-serif;font-size:50px;fill:#2b56c5;">Invento</text></g><defs><linearGradient id="_Linear1" x1="0" y1="0" x2="1" y2="0" gradientUnits="userSpaceOnUse" gradientTransform="matrix(144.315,145.254,-145.254,144.315,40.5414,44.821)"><stop offset="0" style="stop-color:#3d8eef;stop-opacity:1"/><stop offset="1" style="stop-color:#2749bb;stop-opacity:1"/></linearGradient><linearGradient id="_Linear2" x1="0" y1="0" x2="1" y2="0" gradientUnits="userSpaceOnUse" gradientTransform="matrix(144.315,145.254,-145.254,144.315,40.5414,44.821)"><stop offset="0" style="stop-color:#3d8eef;stop-opacity:1"/><stop offset="1" style="stop-color:#2749bb;stop-opacity:1"/></linearGradient><linearGradient id="_Linear3" x1="0" y1="0" x2="1" y2="0" gradientUnits="userSpaceOnUse" gradientTransform="matrix(144.315,145.254,-145.254,144.315,40.5414,44.821)"><stop offset="0" style="stop-color:#3d8eef;stop-opacity:1"/><stop offset="1" style="stop-color:#2749bb;stop-opacity:1"/></linearGradient><linearGradient id="_Linear4" x1="0" y1="0" x2="1" y2="0" gradientUnits="userSpaceOnUse" gradientTransform="matrix(144.315,145.254,-145.254,144.315,40.5414,44.821)"><stop offset="0" style="stop-color:#3d8eef;stop-opacity:1"/><stop offset="1" style="stop-color:#2749bb;stop-opacity:1"/></linearGradient><linearGradient id="_Linear5" x1="0" y1="0" x2="1" y2="0" gradientUnits="userSpaceOnUse" gradientTransform="matrix(144.315,145.254,-145.254,144.315,40.5414,44.821)"><stop offset="0" style="stop-color:#3d8eef;stop-opacity:1"/><stop offset="1" style="stop-color:#2749bb;stop-opacity:1"/></linearGradient><linearGradient id="_Linear6" x1="0" y1="0" x2="1" y2="0" gradientUnits="userSpaceOnUse" gradientTransform="matrix(144.315,145.254,-145.254,144.315,40.5414,44.821)"><stop offset="0" style="stop-color:#3d8eef;stop-opacity:1"/><stop offset="1" style="stop-color:#2749bb;stop-opacity:1"/></linearGradient><linearGradient id="_Linear7" x1="0" y1="0" x2="1" y2="0" gradientUnits="userSpaceOnUse" gradientTransform="matrix(144.315,145.254,-145.254,144.315,40.5414,44.821)"><stop offset="0" style="stop-color:#3d8eef;stop-opacity:1"/><stop offset="1" style="stop-color:#2749bb;stop-opacity:1"/></linearGradient></defs></svg>