<?xml version="1.0" encoding="UTF-8" standalone="no"?><!DOCTYPE svg PUBLIC "-//W3C//DTD SVG 1.1//EN" "http://www.w3.org/Graphics/SVG/1.1/DTD/svg11.dtd"><svg width="100%" height="100%" viewBox="0 0 139 140" version="1.1" xmlns="http://www.w3.org/2000/svg" xmlns:xlink="http://www.w3.org/1999/xlink" xml:space="preserve" xmlns:serif="http://www.serif.com/" style="fill-rule:evenodd;clip-rule:evenodd;"><g><path d="M80.421,5.185c3.105,-0.891 6.449,-0.056 8.773,2.188l41.274,39.859c2.324,2.242 3.275,5.557 2.493,8.691l-13.88,55.674c-0.782,3.134 -3.177,5.613 -6.282,6.504l-55.156,15.816c-3.104,0.89 -6.449,0.056 -8.773,-2.188l-41.274,-39.859c-2.324,-2.243 -3.274,-5.557 -2.492,-8.692l13.88,-55.673c0.782,-3.135 3.177,-5.613 6.282,-6.504l55.155,-15.816Z" style="fill:none;fill-rule:nonzero;stroke:#404d6e;stroke-width:2.35px;"/><path d="M76.862,14.073c2.633,-0.856 5.524,-0.241 7.582,1.612l36.549,32.909c2.057,1.852 2.97,4.661 2.395,7.371l-10.226,48.105c-0.575,2.709 -2.552,4.905 -5.186,5.76l-46.774,15.199c-2.633,0.854 -5.523,0.24 -7.582,-1.613l-36.547,-32.908c-2.059,-1.852 -2.972,-4.663 -2.395,-7.371l10.225,-48.106c0.575,-2.709 2.552,-4.905 5.186,-5.761l46.773,-15.197Z" style="fill:none;fill-rule:nonzero;stroke:#404d6e;stroke-width:2.35px;"/><path d="M73.939,23.12c2.168,-0.788 4.593,-0.361 6.361,1.123l31.396,26.343c1.768,1.483 2.61,3.797 2.209,6.07l-7.116,40.361c-0.402,2.273 -1.984,4.159 -4.153,4.948l-38.512,14.018c-2.168,0.788 -4.593,0.361 -6.361,-1.122l-31.396,-26.344c-1.768,-1.483 -2.61,-3.797 -2.208,-6.07l7.117,-40.361c0.4,-2.273 1.983,-4.159 4.151,-4.949l38.512,-14.017Z" style="fill:none;fill-rule:nonzero;stroke:#404d6e;stroke-width:2.35px;"/><path d="M71.659,32.291c1.713,-0.691 3.663,-0.416 5.117,0.72l25.838,20.186c1.454,1.136 2.191,2.962 1.934,4.791l-4.563,32.468c-0.257,1.828 -1.469,3.38 -3.18,4.071l-30.4,12.283c-1.711,0.691 -3.662,0.417 -5.117,-0.719l-25.837,-20.186c-1.455,-1.136 -2.192,-2.963 -1.935,-4.791l4.563,-32.468c0.257,-1.829 1.469,-3.38 3.181,-4.073l30.399,-12.282Z" style="fill:none;fill-rule:nonzero;stroke:#404d6e;stroke-width:2.35px;"/><path d="M70.026,41.555c1.265,-0.563 2.735,-0.408 3.855,0.405l19.894,14.454c1.12,0.814 1.721,2.164 1.576,3.541l-2.571,24.456c-0.144,1.375 -1.013,2.572 -2.277,3.134l-22.465,10.002c-1.265,0.564 -2.734,0.409 -3.855,-0.405l-19.893,-14.454c-1.12,-0.813 -1.722,-2.163 -1.577,-3.54l2.571,-24.456c0.145,-1.377 1.013,-2.572 2.278,-3.134l22.464,-10.003Z" style="fill:none;fill-rule:nonzero;stroke:#404d6e;stroke-width:2.35px;"/><path d="M69.043,50.875c0.83,-0.404 1.812,-0.335 2.578,0.18l13.59,9.168c0.766,0.515 1.198,1.401 1.133,2.322l-1.144,16.353c-0.064,0.921 -0.615,1.738 -1.445,2.142l-14.734,7.186c-0.83,0.406 -1.813,0.337 -2.577,-0.179l-13.591,-9.167c-0.766,-0.517 -1.197,-1.403 -1.132,-2.323l1.142,-16.354c0.065,-0.92 0.615,-1.737 1.446,-2.141l14.734,-7.187Z" style="fill:none;fill-rule:nonzero;stroke:#404d6e;stroke-width:2.35px;"/><path d="M68.712,60.22c0.407,-0.217 0.899,-0.2 1.291,0.044l6.951,4.344c0.392,0.244 0.623,0.68 0.607,1.14l-0.286,8.192c-0.017,0.461 -0.278,0.879 -0.685,1.096l-7.237,3.849c-0.408,0.215 -0.9,0.199 -1.291,-0.047l-6.952,-4.343c-0.391,-0.245 -0.623,-0.679 -0.606,-1.14l0.287,-8.192c0.015,-0.461 0.275,-0.879 0.683,-1.095l7.238,-3.848Z" style="fill:none;fill-rule:nonzero;stroke:#404d6e;stroke-width:2.35px;"/></g></svg>