<?xml version="1.0" encoding="UTF-8" standalone="no"?><!DOCTYPE svg PUBLIC "-//W3C//DTD SVG 1.1//EN" "http://www.w3.org/Graphics/SVG/1.1/DTD/svg11.dtd"><svg width="100%" height="100%" viewBox="0 0 5925 3334" version="1.1" xmlns="http://www.w3.org/2000/svg" xmlns:xlink="http://www.w3.org/1999/xlink" xml:space="preserve" xmlns:serif="http://www.serif.com/" style="fill-rule:evenodd;clip-rule:evenodd;stroke-linecap:round;"><g><path d="M0,2383.33c987.5,-1866.67 1975,-2105.55 2962.5,-716.666c987.5,1388.89 1975,1627.78 2962.5,716.666" style="fill:none;fill-rule:nonzero;stroke:url(#_Linear1);stroke-width:2.92px;"/><path d="M0,2291.67c987.5,-1805.56 1975,-2013.89 2962.5,-625c987.5,1388.89 1975,1597.22 2962.5,625" style="fill:none;fill-rule:nonzero;stroke:url(#_Linear2);stroke-width:2.92px;"/><path d="M0,2200c987.5,-1744.44 1975,-1922.22 2962.5,-533.333c987.5,1388.89 1975,1566.67 2962.5,533.333" style="fill:none;fill-rule:nonzero;stroke:url(#_Linear3);stroke-width:2.92px;"/><path d="M0,2108.33c987.5,-1683.33 1975,-1830.56 2962.5,-441.666c987.5,1388.89 1975,1536.11 2962.5,441.666" style="fill:none;fill-rule:nonzero;stroke:url(#_Linear4);stroke-width:2.92px;"/><path d="M0,2016.67c987.5,-1622.22 1975,-1738.89 2962.5,-350c987.5,1388.89 1975,1505.56 2962.5,350" style="fill:none;fill-rule:nonzero;stroke:url(#_Linear5);stroke-width:2.92px;"/><path d="M0,1925c987.5,-1561.11 1975,-1647.22 2962.5,-258.333c987.5,1388.89 1975,1475 2962.5,258.333" style="fill:none;fill-rule:nonzero;stroke:url(#_Linear6);stroke-width:2.92px;"/><path d="M0,1833.33c987.5,-1500 1975,-1555.56 2962.5,-166.666c987.5,1388.89 1975,1444.44 2962.5,166.666" style="fill:none;fill-rule:nonzero;stroke:url(#_Linear7);stroke-width:2.92px;"/><path d="M0,1741.67c987.5,-1438.89 1975,-1463.89 2962.5,-75c987.5,1388.89 1975,1413.89 2962.5,75" style="fill:none;fill-rule:nonzero;stroke:url(#_Linear8);stroke-width:2.92px;"/><path d="M0,1650c987.5,-1377.78 1975,-1372.22 2962.5,16.667c987.5,1388.89 1975,1383.33 2962.5,-16.667" style="fill:none;fill-rule:nonzero;stroke:url(#_Linear9);stroke-width:2.92px;"/><path d="M0,1558.33c987.5,-1316.67 1975,-1280.56 2962.5,108.334c987.5,1388.89 1975,1352.78 2962.5,-108.334" style="fill:none;fill-rule:nonzero;stroke:url(#_Linear10);stroke-width:2.92px;"/><path d="M0,1466.67c987.5,-1255.56 1975,-1188.89 2962.5,200c987.5,1388.89 1975,1322.22 2962.5,-200" style="fill:none;fill-rule:nonzero;stroke:url(#_Linear11);stroke-width:2.92px;"/><path d="M0,1375c987.5,-1194.44 1975,-1097.22 2962.5,291.667c987.5,1388.89 1975,1291.67 2962.5,-291.667" style="fill:none;fill-rule:nonzero;stroke:url(#_Linear12);stroke-width:2.92px;"/><path d="M0,1283.33c987.5,-1133.33 1975,-1005.56 2962.5,383.334c987.5,1388.89 1975,1261.11 2962.5,-383.334" style="fill:none;fill-rule:nonzero;stroke:url(#_Linear13);stroke-width:2.92px;"/><path d="M0,1191.67c987.5,-1072.22 1975,-913.889 2962.5,475c987.5,1388.89 1975,1230.56 2962.5,-475" style="fill:none;fill-rule:nonzero;stroke:url(#_Linear14);stroke-width:2.92px;"/><path d="M0,1100c987.5,-1011.11 1975,-822.222 2962.5,566.667c987.5,1388.89 1975,1200 2962.5,-566.667" style="fill:none;fill-rule:nonzero;stroke:url(#_Linear15);stroke-width:2.92px;"/><path d="M0,1008.33c987.5,-950 1975,-730.555 2962.5,658.334c987.5,1388.89 1975,1169.44 2962.5,-658.334" style="fill:none;fill-rule:nonzero;stroke:url(#_Linear16);stroke-width:2.92px;"/><path d="M0,916.667c987.5,-888.889 1975,-638.889 2962.5,750c987.5,1388.89 1975,1138.89 2962.5,-750" style="fill:none;fill-rule:nonzero;stroke:url(#_Linear17);stroke-width:2.92px;"/><path d="M0,825c987.5,-827.778 1975,-547.222 2962.5,841.667c987.5,1388.89 1975,1108.33 2962.5,-841.667" style="fill:none;fill-rule:nonzero;stroke:url(#_Linear18);stroke-width:2.92px;"/><path d="M0,733.333c987.5,-766.666 1975,-455.555 2962.5,933.334c987.5,1388.89 1975,1077.78 2962.5,-933.334" style="fill:none;fill-rule:nonzero;stroke:url(#_Linear19);stroke-width:2.92px;"/><path d="M0,641.667c987.5,-705.556 1975,-363.889 2962.5,1025c987.5,1388.89 1975,1047.22 2962.5,-1025" style="fill:none;fill-rule:nonzero;stroke:url(#_Linear20);stroke-width:2.92px;"/><path d="M0,550c987.5,-644.444 1975,-272.222 2962.5,1116.67c987.5,1388.89 1975,1016.67 2962.5,-1116.67" style="fill:none;fill-rule:nonzero;stroke:url(#_Linear21);stroke-width:2.92px;"/><path d="M0,458.333c987.5,-583.333 1975,-180.555 2962.5,1208.33c987.5,1388.89 1975,986.111 2962.5,-1208.33" style="fill:none;fill-rule:nonzero;stroke:url(#_Linear22);stroke-width:2.92px;"/><path d="M0,366.667c987.5,-522.223 1975,-88.889 2962.5,1300c987.5,1388.89 1975,955.555 2962.5,-1300" style="fill:none;fill-rule:nonzero;stroke:url(#_Linear23);stroke-width:2.92px;"/><path d="M0,275c987.5,-461.111 1975,2.778 2962.5,1391.67c987.5,1388.89 1975,925 2962.5,-1391.67" style="fill:none;fill-rule:nonzero;stroke:url(#_Linear24);stroke-width:2.92px;"/><path d="M0,183.333c987.5,-400 1975,94.445 2962.5,1483.33c987.5,1388.89 1975,894.444 2962.5,-1483.33" style="fill:none;fill-rule:nonzero;stroke:url(#_Linear25);stroke-width:2.92px;"/></g><defs><linearGradient id="_Linear1" x1="0" y1="0" x2="1" y2="0" gradientUnits="userSpaceOnUse" gradientTransform="matrix(5925,0,0,2875.55,0,1486.95)"><stop offset="0" style="stop-color:#faa54a;stop-opacity:0.05"/><stop offset="1" style="stop-color:#e65155;stop-opacity:0.05"/></linearGradient><linearGradient id="_Linear2" x1="0" y1="0" x2="1" y2="0" gradientUnits="userSpaceOnUse" gradientTransform="matrix(5925,0,0,2875.55,0,1486.95)"><stop offset="0" style="stop-color:#faa54a;stop-opacity:0.09"/><stop offset="1" style="stop-color:#e65155;stop-opacity:0.09"/></linearGradient><linearGradient id="_Linear3" x1="0" y1="0" x2="1" y2="0" gradientUnits="userSpaceOnUse" gradientTransform="matrix(5925,0,0,2875.55,0,1486.95)"><stop offset="0" style="stop-color:#faa54a;stop-opacity:0.13"/><stop offset="1" style="stop-color:#e65155;stop-opacity:0.13"/></linearGradient><linearGradient id="_Linear4" x1="0" y1="0" x2="1" y2="0" gradientUnits="userSpaceOnUse" gradientTransform="matrix(5925,0,0,2875.55,0,1486.95)"><stop offset="0" style="stop-color:#faa54a;stop-opacity:0.16"/><stop offset="1" style="stop-color:#e65155;stop-opacity:0.16"/></linearGradient><linearGradient id="_Linear5" x1="0" y1="0" x2="1" y2="0" gradientUnits="userSpaceOnUse" gradientTransform="matrix(5925,0,0,2875.55,0,1486.95)"><stop offset="0" style="stop-color:#faa54a;stop-opacity:0.2"/><stop offset="1" style="stop-color:#e65155;stop-opacity:0.2"/></linearGradient><linearGradient id="_Linear6" x1="0" y1="0" x2="1" y2="0" gradientUnits="userSpaceOnUse" gradientTransform="matrix(5925,0,0,2875.55,0,1486.95)"><stop offset="0" style="stop-color:#faa54a;stop-opacity:0.24"/><stop offset="1" style="stop-color:#e65155;stop-opacity:0.24"/></linearGradient><linearGradient id="_Linear7" x1="0" y1="0" x2="1" y2="0" gradientUnits="userSpaceOnUse" gradientTransform="matrix(5925,0,0,2875.55,0,1486.95)"><stop offset="0" style="stop-color:#faa54a;stop-opacity:0.28"/><stop offset="1" style="stop-color:#e65155;stop-opacity:0.28"/></linearGradient><linearGradient id="_Linear8" x1="0" y1="0" x2="1" y2="0" gradientUnits="userSpaceOnUse" gradientTransform="matrix(5925,0,0,2875.55,0,1486.95)"><stop offset="0" style="stop-color:#faa54a;stop-opacity:0.32"/><stop offset="1" style="stop-color:#e65155;stop-opacity:0.32"/></linearGradient><linearGradient id="_Linear9" x1="0" y1="0" x2="1" y2="0" gradientUnits="userSpaceOnUse" gradientTransform="matrix(5925,0,0,2875.55,0,1486.95)"><stop offset="0" style="stop-color:#faa54a;stop-opacity:0.35"/><stop offset="1" style="stop-color:#e65155;stop-opacity:0.35"/></linearGradient><linearGradient id="_Linear10" x1="0" y1="0" x2="1" y2="0" gradientUnits="userSpaceOnUse" gradientTransform="matrix(5925,0,0,2875.55,0,1486.95)"><stop offset="0" style="stop-color:#faa54a;stop-opacity:0.39"/><stop offset="1" style="stop-color:#e65155;stop-opacity:0.39"/></linearGradient><linearGradient id="_Linear11" x1="0" y1="0" x2="1" y2="0" gradientUnits="userSpaceOnUse" gradientTransform="matrix(5925,0,0,2875.55,0,1486.95)"><stop offset="0" style="stop-color:#faa54a;stop-opacity:0.43"/><stop offset="1" style="stop-color:#e65155;stop-opacity:0.43"/></linearGradient><linearGradient id="_Linear12" x1="0" y1="0" x2="1" y2="0" gradientUnits="userSpaceOnUse" gradientTransform="matrix(5925,0,0,2875.55,0,1486.95)"><stop offset="0" style="stop-color:#faa54a;stop-opacity:0.47"/><stop offset="1" style="stop-color:#e65155;stop-opacity:0.47"/></linearGradient><linearGradient id="_Linear13" x1="0" y1="0" x2="1" y2="0" gradientUnits="userSpaceOnUse" gradientTransform="matrix(5925,0,0,2875.55,0,1486.95)"><stop offset="0" style="stop-color:#faa54a;stop-opacity:0.51"/><stop offset="1" style="stop-color:#e65155;stop-opacity:0.51"/></linearGradient><linearGradient id="_Linear14" x1="0" y1="0" x2="1" y2="0" gradientUnits="userSpaceOnUse" gradientTransform="matrix(5925,0,0,2875.55,0,1486.95)"><stop offset="0" style="stop-color:#faa54a;stop-opacity:0.54"/><stop offset="1" style="stop-color:#e65155;stop-opacity:0.54"/></linearGradient><linearGradient id="_Linear15" x1="0" y1="0" x2="1" y2="0" gradientUnits="userSpaceOnUse" gradientTransform="matrix(5925,0,0,2875.55,0,1486.95)"><stop offset="0" style="stop-color:#faa54a;stop-opacity:0.58"/><stop offset="1" style="stop-color:#e65155;stop-opacity:0.58"/></linearGradient><linearGradient id="_Linear16" x1="0" y1="0" x2="1" y2="0" gradientUnits="userSpaceOnUse" gradientTransform="matrix(5925,0,0,2875.55,0,1486.95)"><stop offset="0" style="stop-color:#faa54a;stop-opacity:0.62"/><stop offset="1" style="stop-color:#e65155;stop-opacity:0.62"/></linearGradient><linearGradient id="_Linear17" x1="0" y1="0" x2="1" y2="0" gradientUnits="userSpaceOnUse" gradientTransform="matrix(5925,0,0,2875.55,0,1486.95)"><stop offset="0" style="stop-color:#faa54a;stop-opacity:0.66"/><stop offset="1" style="stop-color:#e65155;stop-opacity:0.66"/></linearGradient><linearGradient id="_Linear18" x1="0" y1="0" x2="1" y2="0" gradientUnits="userSpaceOnUse" gradientTransform="matrix(5925,0,0,2875.55,0,1486.95)"><stop offset="0" style="stop-color:#faa54a;stop-opacity:0.7"/><stop offset="1" style="stop-color:#e65155;stop-opacity:0.7"/></linearGradient><linearGradient id="_Linear19" x1="0" y1="0" x2="1" y2="0" gradientUnits="userSpaceOnUse" gradientTransform="matrix(5925,0,0,2875.55,0,1486.95)"><stop offset="0" style="stop-color:#faa54a;stop-opacity:0.73"/><stop offset="1" style="stop-color:#e65155;stop-opacity:0.73"/></linearGradient><linearGradient id="_Linear20" x1="0" y1="0" x2="1" y2="0" gradientUnits="userSpaceOnUse" gradientTransform="matrix(5925,0,0,2875.55,0,1486.95)"><stop offset="0" style="stop-color:#faa54a;stop-opacity:0.77"/><stop offset="1" style="stop-color:#e65155;stop-opacity:0.77"/></linearGradient><linearGradient id="_Linear21" x1="0" y1="0" x2="1" y2="0" gradientUnits="userSpaceOnUse" gradientTransform="matrix(5925,0,0,2875.55,0,1486.95)"><stop offset="0" style="stop-color:#faa54a;stop-opacity:0.81"/><stop offset="1" style="stop-color:#e65155;stop-opacity:0.81"/></linearGradient><linearGradient id="_Linear22" x1="0" y1="0" x2="1" y2="0" gradientUnits="userSpaceOnUse" gradientTransform="matrix(5925,0,0,2875.55,0,1486.95)"><stop offset="0" style="stop-color:#faa54a;stop-opacity:0.85"/><stop offset="1" style="stop-color:#e65155;stop-opacity:0.85"/></linearGradient><linearGradient id="_Linear23" x1="0" y1="0" x2="1" y2="0" gradientUnits="userSpaceOnUse" gradientTransform="matrix(5925,0,0,2875.55,0,1486.95)"><stop offset="0" style="stop-color:#faa54a;stop-opacity:0.89"/><stop offset="1" style="stop-color:#e65155;stop-opacity:0.89"/></linearGradient><linearGradient id="_Linear24" x1="0" y1="0" x2="1" y2="0" gradientUnits="userSpaceOnUse" gradientTransform="matrix(5925,0,0,2875.55,0,1486.95)"><stop offset="0" style="stop-color:#faa54a;stop-opacity:0.92"/><stop offset="1" style="stop-color:#e65155;stop-opacity:0.92"/></linearGradient><linearGradient id="_Linear25" x1="0" y1="0" x2="1" y2="0" gradientUnits="userSpaceOnUse" gradientTransform="matrix(5925,0,0,2875.55,0,1486.95)"><stop offset="0" style="stop-color:#faa54a;stop-opacity:0.96"/><stop offset="1" style="stop-color:#e65155;stop-opacity:0.96"/></linearGradient></defs></svg>